<?xml version="1.0" encoding="utf-8"?>
<!-- Generator: Adobe Adobe Illustrator 24.2.0, SVG Export Plug-In . SVG Version: 6.00 Build 0)  -->
<svg xmlns="http://www.w3.org/2000/svg" >
 
	<path d="M18.06,13.48c1.64,0.93,3.59-0.94,2.6-2.6c-0.83-1.39-2.15-2.49-3.35-3.56c-1.02-0.91-2.09-1.82-3.28-2.49
		c-1.19-0.67-2.58-1.11-3.95-0.78C8.74,4.37,7.71,5.42,7.17,6.65c-0.94,2.1-1.1,4.47-1.16,6.75c-0.03,1.1,0.98,2.15,2.1,2.1
		c1.16-0.05,2.06-0.92,2.1-2.1c0.01-0.46,0.01-0.93,0.03-1.41c0.93,1.52,1.96,3.02,2.63,4.64c0.75,1.81,0.28,3.68-0.47,5.42
		c-1.88,4.37-5.84,7.39-7.22,12.06c-0.78,2.64-1.03,5.6-0.46,8.34c-1.48,2.65-2.28,5.72-2.31,8.71c-0.04,4.06,1.69,7.5,4.37,10.46
		c2.19,2.42,5.3,4.73,7.11,7.06c0.26,0.34,0.5,0.69,0.72,1.06c0.11,0.18,0.2,0.36,0.3,0.55c0.03,0.05,0.2,0.43,0.16,0.34
		c0.35,0.86,0.39,1.2,0.38,1.98c-0.01,0.72-0.17,1.46-0.54,2.33c-0.5,1.18-1.26,2.29-2.06,3.29c-0.71,0.88-0.86,2.1,0,2.96
		c0.73,0.73,2.25,0.89,2.96,0c2.49-3.1,4.62-6.89,3.52-10.99c-0.87-3.22-3.42-5.64-5.78-7.83c-2.37-2.19-4.98-4.41-6.23-7.25
		c-1-2.28-0.92-5.12-0.17-7.69c1.43,1.46,3.41,2.32,5.51,1.79c4.14-1.03,5.87-5.93,6.63-9.62c0.17-0.82-0.09-1.99-0.96-2.37
		c-3.34-1.46-6.82-1.26-9.66,0.67c0.21-1.92,0.83-3.82,1.79-5.43c2.27-3.81,5.48-6.78,6.62-11.21c0.57-2.22,0.44-4.38-0.48-6.48
		c-0.76-1.74-1.83-3.34-2.8-4.98c0.17,0.15,0.34,0.29,0.51,0.44C15.53,11.33,16.63,12.67,18.06,13.48z M14.76,40.43
		c-0.32,1.12-0.73,2.2-1.37,3.19c-0.3,0.47-0.51,0.74-0.98,1.13c0.06-0.06-0.36,0.23-0.42,0.27c-0.02,0.01-0.05,0.03-0.08,0.04
		c-0.09,0.03-0.19,0.07-0.29,0.09c-0.03,0.01-0.07,0.02-0.11,0.03c-0.08,0-0.16,0.01-0.2,0c-0.35-0.07,0.37,0.1-0.22-0.04
		c-0.22-0.05-0.55-0.24-0.66-0.34c-0.55-0.5-0.9-1.03-1.18-1.68C10.67,41.31,12.56,40.11,14.76,40.43z"/>
	

</svg>
